<mxfile host="app.diagrams.net" modified="2021-05-25T16:25:40.378Z" agent="5.0 (Windows NT 10.0; Win64; x64) AppleWebKit/537.36 (KHTML, like Gecko) Chrome/90.0.4430.212 Safari/537.36" etag="dGH1AN3DI8jTFjhPeZy1" version="14.7.1" type="github">
  <diagram id="v1XUYiCEESY-PmMDO8Vl" name="Page-1">
    <mxGraphModel dx="1422" dy="762" grid="1" gridSize="10" guides="1" tooltips="1" connect="1" arrows="1" fold="1" page="1" pageScale="1" pageWidth="827" pageHeight="1169" math="0" shadow="0">
      <root>
        <mxCell id="0" />
        <mxCell id="1" parent="0" />
        <mxCell id="ZKtt7pXRlVkyNbNoVnik-1" value="" style="shape=image;verticalLabelPosition=bottom;labelBackgroundColor=#ffffff;verticalAlign=top;aspect=fixed;imageAspect=0;image=data:image/png,iVBORw0KGgoAAAANSUhEUgAAASsAAADdCAYAAADjGFQEAAAgAElEQVR4Xu19e8y9WXXW+VEYFObSaYmkMxgu5Wa0kJoCTYq1gxj/MJLWBNJETTAljYnVVmowahq8JE0wYWzUxKRqWkNrDE2K0f5jitiWNrGlloAaseDMNDC/hgpMYZiiQOcz6/2d5+V5n7PW3mu/l3P5vn3++b5z3v3uy9p7P/tZa6+99q2rq6urXf90CXQJdAmcuQRudbA68x7q1esS6BIYJNDBqg+ELoEugYuQQAeri+imXskugS6BDlZ9DHQJdAlchAQ6WF1EN/VKdgl0CXSw6mOgS6BL4CIk0MHqIrqpV7JLoEugg1UfA10CXQIXIYEOVhfRTb2SXQJdAh2s+hjoEugSuAgJdLC6iG7qlewS6BLoYNXHQJdAl8BFSKCD1UV0U69kl0CXQAerPga6BLoELkICHazOuJs+8D2vmdTuDe/70BnXtletS2BbCXSw2la+s3NXoPIy6uA1W7z9xQuUQAerM+y0GlB9/pHfHWt930u+vrOvM+zDXqX1JdDBan2ZLsqxBlStmXf21Sqxnv5cJdDB6ox6Zm2giprWAeyMOr1XJS2BDlZpUW2b8H2vftlOVbptS/xa7h28jiXpXs4SCXSwWiK9ld41RmV2KIAVbFKnAi9rVgewlTq3Z7OaBDpYrSbKeRlFqh8b0S3nUwJXB695fdvfWlcCHazWlWdTbh5QKUhphqcGLa5PZ19N3d0TL5RAB6uFApz7ugHVc1/y4t1Tjzw6yaIGVkh8TqCFOnXwmjsa+nsZCXSwykhpxTS/+sNvmQDU//ilL+7+6Hfe7ZZQA65zBCxuiIHx69793hWl17O6yRLoYHXE3r9169buv7z9zSNYqSHdM6xfOmCpeDv7OuKAu2ZFdbA6UocaUP2n7/623Z/6d78+/OWPAdIvPfZ1u5c889buBS/46u5Tn3rm8PiRr14Nfz/+9Bd2f+au+4ZnxqbOYbdwDbEZ87JPZ19rSPP659HB6gh9zK4JBjR//qOfGAALIAUwsqoYINlz/TDA6XEbdns4QnM2K6KD12aivRYZd7DauBsNqMwuZSCED5iT/favHnlq+Pn7XvLckTV5YMXV9JhZ1n51acDWAWzjAXpB2Xew2rCzasdnDDgYuKwqBjqmKmY/YGiWDwCRgUtVRk8NzZal6dbMK1uHDl5ZSV2/dB2sNurTDFBx0QCYFqDy2BaYE4DQA7CNmnyQLbdF2eCadegAtqY0zzevDlYb9A2AKtrdYyO5FV9T+5ZUEcwLrG1LpmVllADK8ytb0rbSu91tYivJni7fDlYry14ZVc0YzjYkTHR2b1AAWFpdgBerijUGxCwtso1FtrCajexYANbZ19KRc/r3O1it2AcMVJ5/VNYIHlVproqo+bWoZP/hA0/uvvNFvz85m6gqJvIHY/T+Ik2tDS11W9p1nX0tleBx3+9gtZK81T3By5YncUuxnurW8n4mbQtIwLAO4GG25jFJBrM1mGJLXTNt5zQdwFoldrz0HaxWkDXbqBSQWh04PbWJjeaR+rZCM8YsFAxKu34MWMigpvplWVapTVsClpbbve7XHF3z8+pgNV92w5utNqo5xR0brKI6egChNjfPJhYB8JobC8cEL5NPB7A5I3nZOx2sFsivBFSa7Vx7VQRUa6hTLU3/2Ve99CCmlscalWmpWshl1uxXLfWztMcGLK5fB6/W3mpP38GqXWYuo7IfPaM6Z8+RQFvAK1Il157sqGvpaE9NXJHKyOyK27NWG04JVJFMOoDVRkvb8w5WbfJaDFQzinNfsQm/phrlMRNmdfa8BLAAHWNg9sH5x1p71wArAFXWVlar01bPO3gtk2wHq0b5/dNv/CND/CmPKSCrLGvSPLLvoZw1Jjo3v8ROsnWtbSiswarOkUU1DqMxeQewvOQ6WOVltTOgsrAt5ncEphFt1bcCT7YaWt6agKV2qRLwMJOKdkA98F7KCD0VdQ1Znwsr6+AVz4QOVkmUsKuyGKD44HBJRVJVygO5OYwM76ytCrI6qBPYAxpWwbLtyAJsiwtFshtDlTqq+zmAWAewO73TwSoxyvWsHw9sNapHEQ8i47umz7KE7IRPNM9N4rkgWEItl88e6oTXNhvAmwqtedjxotvv//CkHnp+0pPLEiBh1hgtKHNlt/V7NxW8OlhVRpYyKk5eOlaCdLUdwhIr86pmHtbf/vDPbD0fdjCUtzihshqpYGAVBhsFG1SVTndLLQ6YfTgWWAbcS/ZE1ME7TVCzt1ldlgDklp12EwCsg1VhBDFQYaB6YFUCnBpYZZmUTdzXvvVbjgJUrAp6bMoTWWRL4vZz7K45oKNgFoGLB5QAS4Cfyr2Ul8eWWxeZLYHKy/s6glcHq2AUAaiYEWjS2oRDRIESYJWiGGBC4P0t7FPRJDLwaWVx3hnBLCjwYsAqYBbMuR0eWHlqZZROZeIxtTn1OjZgaXmXDmAdrJwRZEAFdUEjeXoDzlMposmD33VXz5sg+M3y39pGtcZE0thZ2tZogmvY5ywQlOyFKv+IHSEdq4eoD2xs2T5TwC3VYQ15L83j0sCrg5X0+N+475WTW2bYXqIsS0MJe7tnnL2qMS2D7dRgVfJt0phUnsFa1SZVD/nuRAVyD9hRBtu1Suqasii7TYhdUKx+2UPZkd1KVUmPUWfGQG0haxk3rWnPGcA6WFFvwo/qz73hnoOjM2BYlhwApu4LrLap2sEsKRqMXiA6BI07hlE9GtgAqlL0BQWoSO3iycry8mRZky+YjAdS3m+WH643s2vP/vrnPpaayxFQl8BoCbM+J0P/OYFXB6v9qMItNPbVVnndiWKw4oEYAVc00VKzw0l0zswqapNNOgAE7kTMtl/tVnPsRtGk92Tp+XR5dc16z5d2DSOQy7QxA2RZGc9NdyoA62C12+3YmI7VHnYLUxfsYyoD27HYk5073QMpZlVzB8ixwSozKaOQxDwZcdWYXdLqgbwnD8/htmSfKqllJXtf5DrBKqH9z+msH/RWbW+jpQRWyghb1b5a3nPH2Nz3jgVeNx6sEOHTU9NYbWCwsrRseI+M8TXjfNaQjMG95W6gghOv4Abceh6yNLDxrgE9LnBlcC/JhRks7Fhqb8KCkplcDKgaa54nfWkxKKmB0W6n1i2yVYF9Wnq1jyIP75q1VoDLyGrNNFsA2I0GK/VM10nEg0T/h+3DOpivfeerr9SIHDk31gYJVNKsjaWWnz5nB1CdPMyM/uOXPz9exgoAZSaq+Vp6Y1T21z7MrvTSV/uuqnYkL892FqlH/Lu+FzGUmpqYZbne7qhXH0/988BO7YK6wGJx1Zj5reOhJX3WbrcGeN1YsDLVD3YRZkbe6oZJBHaBzsSOkscUoonHW+SqDuggweB8+P2PDxN9C7CyCWX58wcA87Jn3DswIwANQAe3R+M9+w4WZe8YePPH21H1mITlgXfnArs30TxQKtl+smDUMqk5rclcD4IzkDIAzGHTHktuYfFz25UFLuTfCmA3Eqz4cgdlCBBkZOz0joBEneuBnPdbzTEU76wFVmBSYE3MevhKe48V8YaCsUsFM3tH87B0DEK1nVVvx3DJBPKM9ZbfA2/81t1Tjzx6dB82PfyN+s0BpppcMrbHWh5zn5cWBE+NrYHXjQKrX/3htwyDkxkNqz3s68MgZv9jAqkDY6YjPXVSQQv5s40FHYr3o8HshXZhBsf+Q8qiAFQGMGCKADFjSebGYe+ATdnVXAAeVoUtHwMuewf2PfuNXQWYTWXteZndrxZPew4OmOm7rdIwu1qrjFMC01ptKAHWjQErBioWbGSobPld00bfDZAw2Q0casdKMmD1T77hlQOTYXYGtZF/N5CFGmeAYh8GFdiMuF4MKMx21B2htAOaGcQlR8kWu1KmrJuWxgvhw4uvp0mcSkadWe12OwMqfIxZeYZK3X5m5qOdFxlEI7bkGdq9Ce6pg3hXWdUP3fsKV7ViuxJUHfv7D3/8l4dmwL4EsLK/JbDxVCjd/VRbHiZDJCfLEww1Y0vxAGtru9KpJuxW5UZ2LJ4L6OtMnyypp8eWa0Bl5V17ZvXRH/s7uy998hMTsOLVRIXueV5rerWpeB2nHW6MCh/PQVLZhbIznpzGpmAHYhsSgMrKgTpmdhkAldmT+D0wJEvPXvsqA9S7tCHBAMYuByV7XGZSeDt4W9h2lky+S32X/cVO3YYbD1ae6hdt/zI1juwkmS1mndj4rnYgLoNZhqd+KoswsMLHUwFhazKAhAHcGBVvbdv77PDqMSxdadm+Z+lLu3wlIMrYoSz/iD1FLCHyqTr1RDzX8rcGK293kOcH/s8A1bVmVpGNyhqtk44HU4YVeEZwBjsdnFaegRXYzjf/5TfvPvOLPz8kiwLMKT3niQsjMZfJhvO3v/HBg/nhDZySkdtjVxHj4sI8VVjVuMgOhXw8g7lnPFYZtYDVFgbucwWlbL3UUz9jsIfMcYYVG1hRmbpQZYHq2oJVCagAVswk1CcKrMEzgKNT0BnZzoGaZGqZfSyMr2fARr4eA+QImzzhAVTs46SMi431HiuqDegSeKm9z7Nzqers2Ue4TZ63OfrMq78yuWiHsDYBuy3MHwk1FtYKVlbK93zk47VhN3l+7WxWeksyT/5IMh5YWVr1vDbWVeoUfaYAgfcN4IxR6U05XD+wPz0obZOSXREsHZwpeUcPExuHsvWZyqLmSlAaVRnbkzK7yJirIM1t4wUGrFLZFRYjlpP9VgMpS9OBqowdGRnW0AfjoBWorh2zYkblxViCID0juhdlAU6PYCzMVmAwN2O57oZh8lodwKCgXnL0UAUIj6GgXsz2FKzQLqiaXCfsvFn5Vme9RiwCKQYTtaMpla+pdbUBrM/Vm1sZZZRfzU7m9Tu3pYNVW0+1gBfPxxbVj2t0bZhVxKgi8UfGP528uq1vA5539nAOC0wIbMzsRs/7k3962IlkVZHLjcDKS8O7eJiUmFzYHYQxHTYrZmdzmVO0O8qTPAteDGq6mLQCBYdQrk0xgJ/a/VRdba1Drdzr/rzlgLfJAprH69793lmiuRZg1QJUOrGgNrD01L4ClQNpOcok3jMwYKfL733bq4ZHxqx01y1ieFwOygJYah5Qc2zAMHjae6XggaXIpzqCWp09a24KnuxbvM9RP++AcGn0ZyIqdKCahR+TlzJMay6ruhZqYG3XL2NPqXWTZ+y2d9QVAGqYgQWYA6tx7Ael7IfroN7tUf3MWK/37Vmd+NgQyod9jH2rvEPDJVnUdgO9DQlliajbEnAAWPGRItTb23nkxcH+X1J2baz051MJmGHePqZdLAGqiwerEqOKGFQNvKKAcjoIoWLZ7wwulr9nl2KgMp8nZmT2P5+hY6O65q/14EgFXswo5IujNVYPRFPgekSTzNvZ89JGu3vMFuewqKhe5r7hnTKIDO4MWB2s7kjDY0Il37Ylcru6ulqM4xerBkZAVYteyWCV3W6NpIyJwfl4thyET7F8cCDYs0sBmBTIlGkxo9OjLxaZQc+DQUXljYI5DKrGrDhPTmsMcIsY8mBYyD9SD7sRPQanFgRRDaN0kgBj0ABuDaC6WGblAZXnqKm7a9oxNZYVdaT6WiGd+lxFzqPsKsE7jmysL9WVVTtLZ2pntOohIgO82RHCpQZWpefe5oSnAloea7Kp7MRi4zvqetOP6ERhaTJzwNNS0BfqD4ffl7goRP18ccyKgcpjUbrNrsLz3AOykwCTj0EpAi7O8w/+4ZeOu4Jsw7I0GkJFL6vwBhNUUHv3x77wv1LVtx1DVgE5lEt06YVlrJsNHrtSOxlXaInqkGpYkMgmJ/pmC1a3pG6nepdtfWDxGbCytOpOUhoX2DG3xXeOP9W1AKtSmJes0E0QygxKu1g8YVuZFkBKmZfnl4Q6scqm4Wk9Y3UWDNS9Qb3dl04gbxHI1m1p2d77rIZskf8l5gk7H2ybtTnD/nyZ9ipRWGpQ1zIvhlmVbFQKBhnBtqTxwIXfn2P7KrHCmrOold2q1mCgsqHf8lEje0119uTmuXq01q+lPzJpM0H2bhKg8XnSEhOGbL1oF3hWAjnMlbWBysq+CLCq+VFld/BqgzxSIcHGvE7ig5xqs2KQ8xwnI9bmGd/X2PK38qAO2v9mv4L3vbezxvKK7FTKVOH/VZP1ls/1QK5XFs66WbtODaxbyoLbWWNSXj3UqK55eAv5FkB1EWBVC/PCrgLKdmqHjKPOiUBkyaDygMtbqRgU4AjacntwrY5/9u5vGpOYrxern3wzT5QP7GXexRrnAFRWbzawZ8PM2HunVFtr/db6nAG7tAjXFiR77jkHRxsqWwHV2YMV3+nHfjyl3YnWTkX6bIdq/jUVMRoMUWdzehjjjf2sNZEAVroryDuUClqevBnkrM5wr1irnnP70d5rUQGZOZwrw9KjRSrj0rEXlWM07rAIoS+xYLfMiy2B6qzBCozKhGUMA0dISsbwzLMI6Fo6Zc5EqgFsZHRfawJhwLPPF+7xw2URaBcimZo8ER2Cfysdxl6rvnNkzEBV8+2qMY9zAF3IIAIjPnyvIKTjmccf/x/lwWDFRCHqFxsTc8/8Zfv6LG1WbKNStaMGSF6nRKtEpJpldfsaAGU7AenUL8vYzlrXb/FExo4js6voHCBUUXufAUvlDGa2Zn1b5Yc2wjSQdVkwMNBJi7LPAbQiT3OzP3rx7/mcKvrYcznBvLC/apti2Wfmw9as6iyZFYCKVSAPVEoriQdOpYGfMRrOmTglFVGBLvq+NlPhXUF406NtPGCZVXHbjeGCbVmUB87Dfj8lWGUM69wWHALnS1k1aOGpwUqvWUP9+ZYkjccGR2PrG4TTxq5v6XB6xKBqi/IxgOrswEoZlQci6CxdKfDdC+lSEnYNNOaAlE5+Xrmi/Dxg22KisCezDWQFLKufHsLWyyn4clR1fUBECja2H8tFoAWs4Hdm7cW5yegW6C36ITuuPLBioEI+OIIF9qtHrCwdq/uIa8bzyauTEgWdk8cCqrMCKwUqpqgsRJ3UkS7OOrtS2ojysr9QhvqWBlzNNublr3aGrScJ7hyMZB2BrhfyxouX5a3iazNF7gNs03sGaD2ixGyKVSlvsdu6H6JxpIZ1Hh/sKwVTifrQwSZpvzOzQnkAr5J6z2ND594xgepswKrmR5UBhShNxLhqK9sSsMoAKgZBtHIdY4LYqs1MiFlV5OiqxnWES+YJwKu9Xpq65a4hWIi3UHF0CrAM7gMPsC2fGriqPWmtftND2VYXtIHVPKs3M12NqOGpgRyJQ2Oz8cH4iGlamccGqrMAq/e9+mXFm4lLdh9lXB4A1QyL9o4yGmYUNdZRAz3kX9sY0HzWGvSl+rFXc2kFVadbhGvmvNVuooBg37dwxeA6qJc2MwdLB3UWdastSDUfLW+hWaPftF8YjLi9uF6N7woAwCiAcYggywO3ctv/qhIyS/bmj/1248Aqw6g8sFLVj9U3nZwlo2H0Xm0QZwAqSuOprZwWZa8x6GtApe0vtVsBXQEMqoiCgleHYxjhMeH1wgndmCnJSPuA1Wa8x2pjjYXVxg3H6LK0Xgw0vtLN0vB9lBxM0VPLkR6H2NnpGAfoAejevQK22NjvpwAqq/vJXBfYjyoLDjVDubdDWDLSg014aoO9t9YxHh6kJYP+1jYrPnpRY4wlmx/ao8yixLRsEpRC2dQmcstz9tK393j73suHmaK3WPAhcLAZjlSBiV2L7xSZB9j3DfWDOge7E9igxjLjCLDcNlbhWBXkBQpghR1eb6HhfKzsv/bZ/9nSFaumPQlYla7LyqpLHgWPJlgksdpuI97LglYJTHmCl3oQgLt0leYyeAewZWHwdlw9oNL2gGVp6Jk12+TJUEEKaQAwHO65tIBwDC7Y9dgIXXrXY8TKmLyQPBqg0VPFlC2xvYmfsd1JAYz7HzeBIw2fD9VblSzNmuFe5qDY0cFqDlB5DYvsTJZWn0WqV019nCPQqK6lsvQdS7uWGmhsyuK0R+pPySbogW9J7p5RHsC1pepnzMc+fGGHgYt9Z8dX7gNMaA+8AVbIl/tHAQ/yw98WsOJ8wX48JuWBm7fTGvlQWRsBTF57dZG3NAjWaAzPmNepVD+W0dHACiBVGuylVTuaVJFahbw8AyE/U3DTZ3ieZSQZsEJeurKtzao+8o//9uQqsOxmhdcPJZWP7YLav1ihtwArZlI2yQFOqL8HLKUzkPYeVMLI5uP1b83OCNDjM5csJwAVDpazLcnKww4qjxfUz1MD9ZC5Zx6xfHlMKxvm3dNTqn5HByvb8WMQ4F2hEnvhVQvCjVgSC79kb/HAMmOfYVCLViftfF7JPdDUlXBNNYlvFZnDELMqbWkxsHLXPobjqXpY/XElmTEBAA8ib2AyYvLrYhaxLm9slNTjko8XA48HVmBVMHLr7iWPFxjacYrA8lYblLoewEAeaR6QCXy4AI6nVv9Qr82ZFYd44RuBdQJ5AyADOiX1hsvwJlVtoq3BpkrgyvVbE6gy97fNAbDonaifYAxew7DuGc1RH/XlMoZlLMU7cG3vqEe+qoSYpABahIPmK9a8flWGZQvGv/2XHx2qiZ06sD28D09zNdx77ArthX3L3uFD/pGPlAEbgNA7S8j9yoBo7TkH9e8oYMUhXtR458VDwkrs0fcIeFpsQbUJyuoM0kZqa415RBPYq8NSoDJwshU9OkdWa3f2eUmN9NTENVhVtLPnMSMDGditfuT7Xz82y2x26gemu1wchJAZjWUC9VKBpsSwuC4GnKpNROoygBdHahiQmalqXZCOgQm/YSdWNRXOD869nPZcGNXmYKWGdD7VXjIOMmBENp2IEdWYUnZSWrosq/IGgKf+qQ0EVHuOId1zfuTJ29LObFoPqDzA5klobVxiq9KopnrIWBcUyPi1b/2WnRf/3ltAeCyqPcv6kQ3TxtTAlPQmIow9tiVZ/bzQRpClZ4PSRZwXeZa3zg1WCzn0T2mucNugQhsDPKUvVWk8bqIGwkYV7U4A0YHmPAiZHls61btralUJsCJDI8ApYlE8KSJjMufhrbgeWM9hVGqsLe1qZYEoky4LVpYX5DinfVwXsCo+LK19yD5SFsPKQOo5L3rl7vce+9iQ1Zc++YlJ8/QGa6/tACnP410PEVvah9//+JBNKbJByZ5ZMvqz3L1IJPac/ahKDJLnncnq137yv7nz69wY1WbMCqofr0o6IFQljOg18rD3a7p2CSx0QpfUmWjiZkEyq5a2TmSAlNpbuL6eGpsBopY0nrqnAN7aNq/8H7r3FTszHpfuObRy2V3C/jewYpAyA3t0f2PUbtja7DnfMOSNGwCVukgw42a2BaaFsnmMK3NU5uqxeM5HWa26PETsnss5JxuV9s+qzMoYFQukxKyUffCKwHfnWYVZj+YGZPOHypUBouzEjcCrBFZqgM2WZQwDZ7mMpvM18QpWzGxUHc2Wl0mnLHQtNmVlqyMmMwJdlGr3NnqXeGj7orFo45CN9AwMkDO7HXC+qnJypAqUZ+wG9jQ95hLZT5WhQR7c75CX/fVsw572AeDfOtpnZmxFaVYDK3ZP0AnkqVee/UArCZDJpM1M2iWC8sDJGzheGRgcNcaBizktwiXbayxP7Px4h07Zf8cDK9SpZGNSkI2+66Tg9tbal5W/d67PsychP75hyCvDAEtZSYaFMmuz99nOaHVU/ygGs4i9KzNl1qV96wFRCcR0nnighDawWQLlnDOrsjquAlas+kXAorYGDPqIiYCKgzZHjnJWHoc5ydidokFgv3sqQ7SalWi5rsIZQzpfQmnvQw1SFdhjlNHkq01Sb5eq1l7PX8fquwZY8dEU9jdilZDrp+CkTMuAyvPerh2h0ueenNivieuhl4Pq2UN4h9s7OFRs/3txwrx5w2V5C5DKRIEJz3kcnaudituyGKyg+rGvS20FjRiJp1PrNrKVg+1ZMAq9UKK0wpQGuldvz0ajK2jU3pLap9Ez+WgH4hWZHcRTgVVOAF9vNY9+43cUvEsyKsl2CVhxHHS2YVpdMLlxz2Ekb08lhBrI4FMDqih/DtsM9hft6qqvG8uNw7eYW4N9GMDwW7QYRv2j7F/NAB6RsDQPPfzmSZOf8ZK/tbu6uqpN46M/XwRW5vCp586sBSVbkk6sEhNjaWAXhieyPY9AEnXgurQAVaQyaR61AaWMigc56g8WifNsvOJ6wKQyzrarBuI1NRGqEOrN/TMHqGCbsnxMBeJwLjzRWvowsmF5oNUy2yAbaycHxsN4VjalDJ/ZDYd5YTC2vPhsoLlgQIWtLYge28q8o0AVvXPrxe9oEdcmaWeDVe1AcsnOFBn4ImbDk5knOFwfePKoumjPotP2LRJVhhWBluWJtBmg4vqCNWLQclC1yAkQbYgAS9Var96ah67Q/Nw7jd8KVABsjsWE4HBWFnyzFBQADLV+K0U5xbuZC3AjuxPyUHCPYnyx8dyTnzdmeUx786UERDXbleVndX3tD3xbTZTh81OA1yywUqCqdWoEQvx7hh1wJ2g4VnufBwLvmOGZGqJbeiqawFEbGKg08iNfb4X3YZPhyAE494WVmIOreQCTUd9UBfdUcnYtsXIih14wnjlgpe4BmheHtVGQythpuF/UAJ8FKq9vdayX6uIBk+WpO+bsPc8gVQIkLIqeBqHvefbMpWClZRxDdWwGq0x0zywIeCtACdhUveRO8JicTjqoMXOZVqTz84BVkNJVUaMzwnPYgAnGVh3Marfi5x74KAuMmJNOxogNK7PlCdUKVAZC6pvEQIVIEV5YG/RfzZM9s/DpOItAyJv4/Jv3HquwLHtd8LQfI5MCA5z977HsmumFAX9toIrm+9rsqwms1gQqNFB1+wisMlQYHYa02oHeJM+Ur4MzGsAMVFHAf3sXgdyUYZWYE1ZpjbftTUyvTaWJEE0oPtKhgd7AUjNgxSwJwMfb9PabqX4sMxiuMwtEax96QKWAzowSfn+l0CsAAwWkUv9kzSElkwrGNGl1YiUAACAASURBVOofnblF/Y4FVN48XgpeabDaAqiyDAyUNwNYHtvKgJfHwng1YnDVeth3z8CqrEfjgQNM+Xel9fzdG5AexdeFwFvpPYAqrc6qdtv7GaDiUMo8sTS2kxrReYLqJkPEXKKFzuvHEjvCeOP3PDNACYg8WfK44TFj5SC+e9SfJdbrtdsDLXNCXWKnapmvB2nvf+BrPz1xe/i/FbxSYLU1ULXYIGorV8a2pBPVmwwltUAnlgFVLSyLTj4v+qPVS9mhx+JYHYIXNE8cz+vam3g1OahcFGyyMcfB0BSUuW28WWK/s6qXiX8WjaGajUnfK+UDGVp9oJozsKk8o0US6VR+dlIB5wsZkGsApuzKW9Tst+/+xXdOh9MeNBaBUOvLAC0pOwNcVbC6detWdSK21lfT18Aqu6ph4OgKpgMqsnUxCCnT8vKurdjeO54a5A3qlh2iiE2ynCM7FtIoEKGe9hxHfFhN9YDq4+/717vPfvDnBneWCHjB0FAeYkXBdYFtdyoDPoblnSdleev/aGdmMYsYfImhRmMhUmMtve4W23lIqMeRGpzRLjzQfOgnfrB9mh4RzBaDlQGV96mxiHap5N7QVdIbgPyb1+G6SnmMx9JgNTdfFz2pr+DgrYIYvDpYo6BqJRajK6WqHxHbrMmrJnUrh/3bAFz218DCDOXMBLyJqWosh+HFZZs4pYDr7AF0YC8aSiXyrSv1rcdOwFCtvNIZOlXposVQ1X4eA9EzHa+oC8auyV8PP9f6De+yz9lrf+RNtdd2OwYnY0BHAqsMUFnlU8yq1spTgVdUr5LBVVkcRy9VcFN1D6s1r6JcFgf95x1HTuMZqgGOJeMoq4dcD5YBMzS9El0npGdTUcDk9rBLha3++oydGRlcOU+Wr8cwAVKoq7II/l6zCUV2Lh0z6BtNj7po+KJoYdIx4dmztN90fCFgny0AEfBG+XpjE2BlZ03t8/Qj79qZi4H93Tk2pFE2+sxT3QJ1roYV+jwLVCmwOsg8YFuc7lTgBSaRsUMoC6jZraLzVWi3DSJsyePON3vGN9+aimMfhBNRtZONzrCLwNfKM3BjgoAhMEDVJrb2q05+VgNtZeeYTQrKfBxGbU9WTrTVrgCqwMvfS+yR+4BZmMeAPKBXFRj5eQCmDIm/s+3S87Pj+ug5QGbzLBcPsD1AgHzMhsl+ZNGZ1KefeM8d5hQxKAYsLhDvaCVmsLAWoJoFVnPAyxPu2oDmeQ97NobSyoSB7A1y3cZHREVemfkGXW4z4mtD7WG7RBRckCcgG9RLbEMnu2efYVucp7ZZHmxP0nYg/jeDrhd9QHc+MRlLt7EwOJT6rmQHKtmkvDw9QOI2ewxO5Vw6pA53DC275NRciqLhqfaRzbdUrxGsrDHKkhSoakDUmn4vwKOD1VrgpfksBTPt1DUNq5HKgDZgsNXuggN74csEdCJmJ1ikSiq4sTrJcb49O5BeNMDM0doKfzEGK75vzgtnE93YorYtjyXqIoI+1t1PZZUlBhexKmZXkRNxJpIGj2Orr21MILKEFyFX5wGrgzyGS9FBUI5HEkq/QU1EmgHQ8FkZsFqBahVmVRNIZKSvvbclG4sYBbMKDPBo5a2tuMjLC5SndhxV/9R2pROqpLJ6q2yJQam/E09SBl/Ym+w3eN0DjJgl8CFdvoWlpGbiXCBUyIyHeqmdAHg9JqSLCcuV+9vKZ2aY8ScrjecowoYn+5La57EqK1d/z4Boy/ybgJa9WAOuSuZzgOooYHWuzEvrxaoWT1hPTfPUxJJqwmXpJNO42mp05cFYAllvRfbKLYGsqm78PjM8ViU5Tcmux2F97H32xFdAVyM2ylCbpP0eqYtqx4va7S0EDCJrT3w+J6r2L7SH+1kN7TWQMcYFg3otbcvzA8CaCVpzgeokYLU2eEXqoh59aekYD8h4YkR5RbaDbNk8GXWFRR7R7x6wKJCUdhs9sCu1R58BHDgfMBTeWLDnDFRI7x1laZFzC1v21ES9WNRUv7WBytoTgRUDsvZly7jaos7aD9XdxKDjlgDVWYDVFuBVM3hambp6ZQGlBIIRTc/mzek8FhHlk9lIQHuhznm2MW/CeyxKWUupfepXppsQ2C2FL1FUXmS7UZnxd91ttWcRYKNc+HZtxVDYXoUFkPvaM7xbOkRn9cYIfjsGUHH5LttCAkdVvHZgtTZ4RRMJK5xOdN2KtvfV5sC/zQGilndaVD/L17OHqVrFeXrqEYCBVSQ2MvPOKJdZ2+1Eu1kNtN9w/TuDoMc0op3cFhlFdiorj51Ut5r40biLQBa/a9u1zUvtai1j0ks7sC37BP5bS4HKsq46hS5txBbvr2W0ZxVSDyJn2NkWbdM8WydidOaQB31kX+MVXic1WElk7Mdz2L24HRGbyd53p7Ydb1dwbl/wjixY1VZAZXVUZqX11sWmFM4I/bVlfefK1d4D87r19X9xSTbjuxcJVtzyq0f/0eCVe8zPUreK1rqyzcIzvnJ+HlOco/IqcOkxGY7syQZynvywWWk4GN71U/cOtnMZ44J7ROSO4KmHWfkCWHE+0d773re9ahMDNeqkgRjt9xL4eps59g76dA6jKtmcdC6BMc2dY2vGcr9osDKg8j5zBVsb5McGqVp9eNBi0GfeaUkDT3p7h4/Z8NVgnlsCmJZXFnzC7JkBhV2QwDY1PdqDPNglIWJr0QYE28IY/HHExeoAOxWr/ZkNnBZ54govBmJtH77rLUK6M5i1q40qGle0dqQGnu2OJ/sz7v9LYZMZCNdiVCjsYsFqAKqS5y0Z+NYAL/VEbhmgl5K2ZGC3NmRuxY7aGjEj9t9SW5oHeJ6a5O1MMgBE4YW5rgq4Wl9PHWtVvzCGSu4jLA+VpbYzW37REG6FYK5ER2xQET5q88TtUaM5cB7dA90adiqWwUWC1QSoWJD2v3PA8urxT+9uPfj8sd1zwescmdVaQKhAhQmFv2BDWfeHOc6NaIvVBbuIOBuJZ1wfZmMRmDKL8+quNrjI96kk5wxosPpXAqtoE8HKt/ba2T/7tPpSTRjPfQ/urh770J0mFc4GgkFNzhFWBtwty/vzj+/WZlVW7MWB1YHqVzo97gh2Alz7d0u01usbBq3oJpW1QGTLfHSlZrCw/5nF4HsWrDymUmqLun3wQW51b7B8PHWPdzG983URgGaC+3Hdta41sAKj0puMPGaHYIp4puCVVf1U1iP7SXif82Je9F4PmNgWQHVxYBXZqFontAHW0HhiW5xHlnldZ6alwKUyLjmnRkAS9RMb85lBwVGTdzjtOb57kQu43mzjYe/6yA2gxGpUHkib2TWGSwZcIywvbBxwe/V8plefGjB6Mm4648cZeGAkquCkvPsf2IRRoYyLYVZXv/tT035YMVCYqolDQdRRWeaVAa8Sm1EDqq7g0butYO35WXkTWJmKx0w8oAHzsb/6XHcrte6l4y/MqKJ49mpIx+4knz/MgFJGpta2aDeOY6rrbT7q3qFHuhRw8b0VqCa7fiVGpapgzXaFCglwrW2j0j64CLA6MKbzTkWC1mYGnq4Qw3c2PNL/a4IXD0wM/JL/FwPYXPDS3TDv4HAElAwYke3FA6SS2say54kMFwcOZ4y6wjGVHUwRJ0zzs+8cbdPqMvcKeQAwyvAYFnypLA1uEOfdP9QZAQvZmVZtZvjeov4duCawQIL5cutFrxlsTWOMK4x/Ai7Yo8bsZsRRb56L9MLZg9UBozL1bW/EKwHK0pPhyq4mZTHzol2RJR0x990Mm5ubNwMpg5Tmx0BUUg+Rh76vhnIv6oRGZNDr2BEzTK/Nwu4a7wjOvTeS662+b9xuRJsAQKE8Dsnj+a0pAHJ5Qwx1Z6yFtqg9yIxzRYPmyQ6gpbPPAFgKbsy8eAOL/t+aVVmVzhqsRhtVFNyrFOWwxriid9FRLWFbJW3W5rUURKL3twQwVutKDCoDWrDlAIisPXCP8NRSAA+rsdjtYzBjuTD7UybIUTU9JqlquSdvvKdx4udcRMry5LInlz3U3Awcm9LImvYNADA9+dXPDL/c/dT/mzKqaGDpnNrIRSEq/rzBam+nYiY1WSm4VTUntxIyeMCV9OGanIVCGdKp5wJemFhLVKBowvLvkV1KAYztSyW2xQZ19oYHUNm7XtQGBjU+2uOBWaR+1RYUsyOpV7ruooJRKsh67MzS8u8Ht9Ls2dV4lIW1jH1lf+X/fnX384/ftft73/z0WH13Dgl4HbAqe14yqM+4+68mz9LzswUrT/0bG+KxpoJR8Oq/fzjc+SsKr4VdNfTCKcHLWBeD1RrApZOQJxwmKovHS4/nnsGeQa7ko2R5eLHq2cjOwQEtveeU6jlmqn3Qsx0iP7TFi4XmyQPyUsCc3POnG0oy3sCW7OfBz2mv1kXDEmk47QSsIpCihf0Yqh/X/yzBCkB1YJsq7VJ4OnmLDxYb7bWHayplA1CNSYXNnRLAUKea+qiqktfsaHdQ00Y7cgxkEdB5zAX5s41KPe5h2ObbY/CeF3iwxLZYhQVIRapo1HYPtLF4GGPzIhmMTpf3PbgzNe6eZz7voBvsd1PtOK2CWIpFRa4L+xJvPFhVGVUEQJXt1uJOhsegvO3cLUBLh9q+Ltkdxzk4ueY7JYDzgMezeXF9NPyMV1dlPloOgxxAhfNhG5n9zqDmXZVWYloMVJ7riVd/gKDexMNpH3r4zV/7av5LxJRGVmRe6Pvx8sXnPnsArl/+9G8NKuDL773a/YWX3rmynYFJDekHZpVoHh3ZTcGT21kxqxGoIBj+y7XP+oHMnZXK0pDPUrCqGfWtHEpzDmwrI8IaI+M8InYWqVURANSM+1amB2LKghSs1CCvu4vsewaQ43c8NlazTbF87P0BqJwF9IsvePHAmMwmZZ/XP/+FAxC99dfu2n3ysXt2/+BNn969+hufu/vClz+3e/TJZw9p/sVHnzP8/dHveGL3wFeeO/zv7fwpGB70O83FYzMq1OVswMplVJ6e3gIYqtpFer/usETfMzN3SZoz21Wc0xQFrprq6D2PGBnqU3LqVDU0MvZr2ywdX4TBIGl5qrd8xohuZXBdTbUzZ1H7eMeWBqD6iR+cgImBiLEl+/zWk8/afdcDXxz+/4Xbd+/e9KK7RnWP2/P47/3m8PXB57x8987f+O3dB//r/bvve+hzuxfe85URzOyZfcYdwU89Og2ct8/wgImtFJtqztg6C7Aqqn7aKm/7FGmUkdnvEUsr0V3k12LzmiN97x0q81JUwajpGhWzJqIasNn7ysAi94KSQZzz4XTqfgBQgYHeHEvtwxe+eqBXYnQeUAHQ3vCzXwt5ZCBiDMk+9971DZP/Td376U/cHp4ZYMFuBeCx72qTMjY2MLHHPrQzhqYf2LgAYIM7g3y2OvNXGxd4fnKwSgFVpJYBjCqTPiuMIV3kx1LZwm0qI1nfSwcra6YBVsSEcINxy45kCdDUHpYFv5a+s7bo7dTm/BldXBvlrTJ5zXvfMdqcXnzPHaAwkPKAx56FTpzkNG1p2AhvjMvUQ1MVAUawdQHouL4MYFtFUmiR/UnBKgVUUWtK7gsl9gVAqrGmGvNa4tbAtiv9H+09sWd8yyBaM62qkXwle6YcZVR4J3KXMKC8/f4Pu1EcuDz26bLggNhRNOCyYzNmv4IaCQamtiqtPwDrrn/+VwcVz1iSfQwkDETsA9akR2EARAcOnU/cPmBOzJKQr8ucEN5lD3Jc/u7WQxnxb5rmZGCVBqqajaoGGhEY7MXqHkcoMbkSm1vaVRvZrA4OtN7/wO4SWRuALMOYrCuinceMncwDFgCTnlnE0RllS96mgdq67J1X/NTbdj/+sXt2f/+Pf9MkzhQAydRBszENMahqm0usGQQLuuf+YGB4+1lPDc22sphp3fMs2plcOsYXvH8asLr6zwfbqaFDGjGNUqCw0gHMUT6RiuexrRKjm+vWEAGrw/LW2gl0z45tWN6CsZh+taRaKkjZd8+u5fmD1ZxPGWjYIG9lGJtilqb10APaADb2UD/wi9qDk+t2c/8DI/sCG5uMc+1jGrN2/MY+Cn6sNiI436l2/rzBcHSwMkbFFLake7uj17Md6Wrj7Pp5DqZNTqdeZTx1s8YEOR9vlVxR/TOgCo8noR6BO8VaYJlGoAUJa64TqgJGN0fXwIqryJET+Dyj59dl70F1RB688wcnTs5/nBdgUzTuWZVjlwPYpw680p+4vRvOByI6qBVUYGgjaJ5w5+/kYMWqX0l3DsdtzUudWVgNFJxCDlaw0gSKbGZzwWr/3logAdXPbVNLHfcyWKteCzCp+moEWt7OoGXmRTPVnTxlU2BkiGRqhnV2j0Cequ5pWXyUxnPMjBZxNZpDKBMgIjBiMGM25Zo/yHB/DjYq7fCjMSs+QsOV4O3WQZj7EBVp4KgZ0yNGRCtLuqwW8MqqfJRuDUBwL5uMQLw6/eMEa9R1QfHpVxFS2F5Q3ykvk1KUBuRhf8GgSnHdoxDQ1TN/7G5jAAK1jcO3ONqDGuV1Po3ARnNsTAP2hXOFZ2BQPwlY6Vk/Xh0UrJjKjpWNDN4RQ6gZIdNDPdgi9uqTYStBveYau/nkvQ7ESROXqqsJeV0KeFlTWo4IcdPVOx3gpWolWJU9V8AKgYrY0EHf8cIXHL1h1jSZN5yZLND2iF0bRqJwZuofmrA5s+IonxGDUVf/iaFPg4FFTIk7u7abR3lwnZh6V9mWp5Jq3Txbmhg+50xyLxJktb5WtwygJoDpIAnsXtLeuSA8pwpz31HmBdakLMrzFYuM9Bzoj+tltq3RoC7saUi3ByL3kHGhgZP54xjl3TG+t1+BtQ1gt9GtNHP7Rt/bFKxgTFfhR0bBEUHl0Cb/nurIiPkkjIo1wYYbAsHgC/ObaUif7O5hcGe2tLkiW4LWvpxLACoWSc3bvnSm0etjj10NrEp3pJ+4vTu4cSkybTiq31A2qXDYFY9sUl5dx/l4hqof13czsHryKz8zdWjbl+oxgHH3IYjBM/H5cI4SjA3yOjP6bUVVcTIAdLdSWcdMQ3op2FoNYEuAOftd78V9W+ewxVXrMTOz2q6il210tMbSspH9jb/+o8Prd+/P4GHMc6w13Lo0Ls7e7UutttCaLPbj9dRHaWrVtOebgBUYFVegxoh01wJno+zIAT4au2fM0wOIGpMQsAoZU0aKWj6/46iCLZP56ukPjA560dELt4oZdrkBw2ppW0a0p0wzB7xQX4CYAdYP/O+/+7VmMLMS+estSwxe0bVxB76HgUqucmSCYDuJ5+RPFfX56mDF7gkpOwrVTAELj3CK3EJcRGnCQPdeywM6PenAjK0skmqQf0Y1gm/UwS4p+9tYuQEzbJV5CHQKuAlgWwOomEHeesYbTolVY9lLQAsXPbAjph0kxiFlK2QI3VJa8Fql0Kg1XAKrWp9Z7T3T57KUSB00IEIMn+/4A8+cREAsnTRv7ePN0jfYp2yy4tgDDrKiXgdXftPOULPLhzJPx6u9KA/HmXQpWNnGAW/T88L09K/83O7r/sTDm3VRLeM5gGVRFDSaJx9rsTL5sPLEzlSrUOa558Vu75F99RIYFZq6GrNi1S+aOLrrV5K3GuEt7Uc++9RwYtw+GhbDfvMOZw6J1aiZ6eglaWSVjCZxxKJQtHokl1TpZkblreQZwApsJnOBKnsRp6cSzS1zSdfau94OopcnwArj1TQEA6dayGFLj4XJvYB3bgOk7y4JqFZjVpNLSEmQpQnUyr6Q3gKRWQgNdLoVB2c4BjEGzKHzI7XOsyEEx2DGpkU0m3cEiXnwpFK3AwZlqLslO12xLXMHseeGUQIu3mKfu2HwyLvu1DaQNWQ2Ornu21aavMcCrwxYwUWhFD3B+p6vw1ITByItrApYezleGlCtAlbj3X46UVr0Zs8YHEw8z2blxeIBcPEtHgdZqruBsgbPTyqaYJw52XcmQPXEe8ZUHlibqoswtP/soVtDWg4Romqy1zZ3gWiQ71Cos70+CbO70FcMAKT32aFsk5mCVBaHmYGtoTZ66l8tbtYYP91R09EOBSpuXwRa4UF+jEkdzwWh3TiwCoGqNrK87fwkuJXsWmBZZrwEO8EOWorJ1XYV0a7a5BcblavqEDvBwEXAfwOsn3ztlyebCbw7Gu6K6m3V0g+jDJzDsTyJJuxNNwsc9bGF0UxAaN/nDLC2CeEB1Vx2sQS8SmcNvVjrJjd2+nSPyWTHUG0OZceqs4heIlAtYlazgSrqhCRY6euIdIgJ5jEvPoWO92uuFOFYKQGVoxKFDGHfXhjTD3aE9hXwQJZX5QN3hhqQ1iZB8NwF+4aNg9//4NuHuxsRUne0L+7ri51SdXotet0zE47U1v3C6IFdFmQZtLz48BAZdv5G4KczfQcLxcx+0NdKO9gey76UnT9PPLMM7KsDFWjsjA7kDlEDvmekLxk3ZwMYrZYHap9u+fMu2v0PTHb+dAIr27Hvkyu/S/IKQGuy41RYIDxVZAJYDbaqkVlSFMvJZghuGX7kXbvbf+i+oVVDsLn9oVq3X9Q+6MlC7JE1v6UW8GI/quEYjVyd5boiOHZMgPhY/cj0gASBf2Bt6pz7UZpa/Wcxq4kxPeF7k6nEkGauUVtUH1ffb2ALCnjp+hPL4MkZvk8q0Mj2gmMzHlvEO+7Bb3sY7ICm1OEKq7PH2K2qTXBzah3S2wZHjfVRnb1F6CBAozeBvV3OfboaWGlf1drG6a2dqJ+x/THccDAADjZdooFCzHBcvNSzXQ43q4/e8N6ZH6XJzLMmZrUJowpWjIPKy0AvTboMNS5NBtdIXZFmZGspvQaViFW5Gphk2j0p0wOIGmjsF4DiMaeKChjtenqheVmtRd0HmZhntQWNk53cSDUOwQyLYbS4ltiMPPMce90ghxU3EAXCQf2N+mVfbz2Oc/X4Z+7g0IPPG1RsXvQPtIwzjaSQAakRpK+urq4yL9y6dWd3au4uTbWMmTariAnVAMfV5/cB871IjFUfJ47CyI1ltU+EoFciseFcVaASuwJzqbV5LN6ZFAwAnjrNdr/JMafdboeJN6g0f+xbh2I4njfqNzwIDt0yG2BHyrTa620uZJm/RjsQFXOQq8d6vc0Hb/F16nEAVnDl2MevYhlHmwsALwMtAyz+GHjhvUs1qCtmpJgVgMoDnE3AK3A85JVjRFu6kWMyKeRKIn02rEj7g9MZYIjA6sCOoz5IkRGYhMm+OOqG4Tm/2qtN5wS140o7SftnDFjqzAhZjqAeXJA5mTyQNd1bp068AAUOW8JA7PWhluH108ROF6yaunOXWgSzYLUHabdoZ5EewXH/gndmEExKVVtlX894/burPOFSEqTAapjYe2ZVa9gm4MWFJhhYTZUas3NUS3YmdXV/xP3Zg6QHenDutGcwFLsTVx1VqT6sGnmbApyf5wALGRSPIxXaz+0CWKHMkjtIiaFN7GgOKBaBZl941aaorNGxYblMpWC4njDJaPwVbGURSHkgegDUxNgViCZjas+k+LfrBFTDeMyqgSrwSwCv6sCuIG+kKupqr8ABxmHHg/hjR4XgAxbdB8fxiPAuvPZx5Xdxl0wmdTq8jsNEUf7B+ba9LcnqxffdjVdGSWhqXTwmk9TxtaotiLpA4HtmN/dApdONiJI9r2BTYkfWqvGcAG9yF4G3weCokB5oaVSG66L6TQB5LljNBS99bzUmFnifq60nM6AP2ibBAL1Y1/yOHpvBJPaYmtp/Ri9lGtAllcSb2NxGZljqDQ/Q1cnO71jdf+H23UMxv/mFW7vvf+WTw/8P/M7nhx3cf/N/bu1eeM9XdnbA3OxUHBnjYKdyP/HGm1Yq2/Bz+mqoXLATOpGVgkDAmIp2wH0e4dlPskNF7MoFWo8dSgYRywJodbDKLHlY2ZNqYylLANns4xcy4ecOfk+10euTPECpgRqDxSgHnmiVSVcDsdqmgFs+dYgC/Tt/47d3L7/36g44fel3BrAygELkAANpXJDpMkgAifiaKSB47UKaEDwChhSya1JDWY1WlfpARhWA4vGsC/HBOHbAWq/LUvvVxMVnH2VU59B1U//QvtlqYANuDUmzamMm3xQbS9i2agyqVJesislAF3nbTyaLcxSGmQ7sV1y3DCiF/liy0TAODInaCtXTu+DD3rF62dlGU3Xtfw5zg+ce6ynZF9O2x8qgmfSV7Oox+Lm3wzz2oXG3MzM2NQ2P1RCsENp4v5Oa8tpnBrkv1NjWdQWqAUPWUgNbO3It8CoeZynZH1BhMWrj56xdqJWtNU1OYQtVdhF0gr3nxVUaBgCBknvTiRNqmlml1x4FAFM/jXU9+uSzh4gZrCpmjeqtcp4A414uo8+W9Lm6ZQC07r3rLa3DupjeOxc5ASZv55jcKDynVt4suI6qHwv0ZGB1wGoWqo0eaLlHXyrOekO9vDSlXSBtTMG36iB/BzTH7MjGY7/NmrCJ6eYZwEvMrQVwebPBjPH2+a4HvjgClqeCJaq8LImzQHmRWVs82DMVqoIVMsH4qR29oUKvO1CdlFnVOncJ82Jbl1dO7XCxS8MFwCbxlnRFTBpvD1bVyG9nhkobyTerWoGNWT7qrFrtuz0b81RGhPM12xbbuCxP1+9qSXjpWkVpB9RAFXY2q0cmBHUi+0mS8RxgsBl0wAYzCytY44vf0Vqdi0t/NsyqJrkl4BXlnbF9eUHgxt8oPlX1Tr4a4Dhb1AcMz9khrDGTyCDt/c5qJmSmGwn43dt08NifqoT//rEvD7uKf/NVz5qAYKSm1saF+5xUp8nzgDEDmM3VxNTUF9z9V2YVW3vJu+9R3xnl5Zkwgg2XS46kUJMZP78YsDro1IVqI/Jzd2z2IFRaXcdQJpaRBzQtvVBKWwA5D1zUbaFmfNfnugPIoMUsC/G14PvFTYjsUJbmpz9xe3SBwM4h8lWfMA/8msSanPC8gWEscquLKg7ASup3sIBECxirsdfgzF+2Ty8WrCaIuxJwZYVm6Q7Aqmanask8ubbDVwAACKFJREFUk7bG1DJ5AGgTedlEgv8YvPL1/F8NsOw58jFju33YURagxQZvD7CyqixfjFC6DcicW+1jvmL22UIFHMaM+V1F44RUQ74JZ6hQ5AN2g4BqGDun2g3MzqU56bZQGbkekwBxcyq4xTsJwAmL5RXeWe1x3Gbidb/PTIFj4pEdFIh34JmPXcIo9rzu1oVglXEGpXofHFNy3BRgZ4LbwRKjO27vGd1IcJTG6btaG2+CQV2Hz7UEq4NGrsi8srexbIFHB3l6q7QHWg2T+EB24r0/8VnyYlSpvajgpY5JC/WPHUnZryuKRlGc0LyjJg6gqj5b+d7NSQqSrO63ghbGTajqFa5Vm7yDHeIbYFC/kWC1Jnilt5+PglZBIQtYlmc4T9nBIvtQAFaRXQu2MGsZ7GGeLUvVw2gjodQNaqty20lAN5ZJkU0zoHWwkePcDjSJ+iC2Kj7cfCm3J28x/G8Es6oJbo7aOA7AY9uqao3R5zVfncgeQlElBnsBuSNE4WmaAEPdNEg946gVOMrj7RbWgNW9pWdvA8q0Z6hSyUhPsbyibjE18qnXffvw+G4LpcMfcXnxNjcmcbQsFtgNZFQQWQcrZ5RlwSvj+tCKLaukV78vnXSsFgZe/hMVKzoJ4PmTRWm9hgW7XXAl4Ff0xiJ+VjTIt6jAFWCaXEe2r0CJWWF8aETYA/eEgL2pYf2muChEc6CDVQIdMuB1EPi/lO+WbCypAjaxoJqMak6wbMeKbGoFhmfFR7HFWB1kkCtFmKg1Z3zusD8G8WjXcGKf2ofT4XoyUz2IQMpuCRSw8CYzqs6s0iP2MGEGvIqsS8GKjcFgQXPrlwSrudm770W7iYVdxnD1dLzf2RCvgf8AApF/WOaM5wScaq4FXHEnDj2ACruiHOOrxqiQ9WA7E9l1sLqmrgurTsREZnPAK2OYTRRdj4mvQCiTLSyjFfRq7CrTGDlYzXHBDKQOzu/tr+pSe5ZX1IGbAo7xlNRW3dlExp4dcG80xwaBHdbWOyEnhnJcMxbcaMQA2oHqjjS6GpicRC3JMuDVkl82bcqGxvYsL2N9HkzMg1c921CLvUgy9OLSA7DU30tZldqwJoxl/yWtBqt9jwHLURMtTI59Xv/8Fx5eP6bAGMmMZH7T7VQ8LDpYZZFgQbpTgZdV2QUwBiDPyJ1pa415BUwrAxJeGv0tAigvfA2awzG9dCcxHdFCVVuPbe1v8Bnqgss0SmBueegNO8YkbpiHem3YdbCqSWiD56cCrxTzam2vt/OIPILdvoHS081Ck9UzceOQx5wOHDjF3cLK0B1FPt+YBiuurALQHqQsyZifqpJJm1gHqsOB2MGqdXKunP5UwKXNmA1kEVh5Ko+ngjoMLWJWyow843kEghxXy84jsle8ySKMpFpxxUBdzT5lx4ZwvnCUb6QKO8xzrLvtIN5gf6poinWwWhl8lmZ3avDSMLzcHu9ZVc2sCUQmM6t3XvibCMgmbMZhP2zcZkN9FKbZOwc5ZCvgxfU5OBZTUZUZnIa89+k7q/IHTQer2mQ68fNTg1et+WlGVpq4xDL0stGw/ArjwXvqqa7nES2dGu7BtOwv39nogRVU2lCNjGxcBE7cxg5U8YjrYFWbjWf2/JzBaxXg8q6BX6kP4DTqHYxGEerioEWH5yQzjq/ILHAn6UBV7ugOVitNhFNlc67gtRZwqXMkq0uRzGvG+1JfMVjxoWqcUcS7rTYub/eyM6q2WdPBqk1eZ5/6nMArDVgZqSYPXEMts7+RzQvPPPsYq48c7QG/s3PqgYqIRA7LOvBelzZ3VlUfBB2s6jK66BSnBi83bPQj7zq4i68J2GCIDtwfMh2mflYMbhPGs7/GDBddIEAgX3zhsqyMP9a+oA5UmR7rHuw5KV2jVKcGr4wo9Xai6m1ElmlgcAejKamGNR8rNtJbUWBXOPeHNk3yKfiYdfUvMwoO03RmNU9u1+atSwAvCDvFvmqe9dpzjh+UukfAR8te5Wim3iCYOINyAj5Cg+irtx66NuPoGA3pYHUMKV9QGZcAXq2gVTo7WGNV1nXMyhi4eFfRUwWVzU18svpRmuZZ0cGqWWQ364VLAC/rkZSquMAtQtVJHQUWIcI82O0AM4ALUSMsAgNAbzT6d7BqnkgdrJpFdnNfuEjgKqiFkR3L62FlZ5ZG3Rxgz1K2pp7t/SjNvDnUwWqe3PpbxlJWvDVoK4FO7upLnk0s1aWkUuK9UsC/vvM3v6c7WM2XXX9TJHAJ4DWqjK2GeKe3zX6lB6I5Gfy0zB9rUAO76rdoznSwWiS+/nKRhVwC83riPXeaoEH2GsDMO8bDchmYVgeqxZOlg9ViEfYMshI4Z+Y13LIdBSJMRE/Quw05mkMHq+wIKafrYLWOHHsuMyRwbuA1ABazrFKbBMA8A/z4evenmjE6Dl/pYLWKGHsma0jgnMCr1ZcL7YdKaN8He1YHqjWGxh2b39XV1dVqufWMugRWlMA5gFcKtNBmObPYgWrFwdDBal1h9ty2lcCpwCsFWBJbvftSrT8WOrNaX6Y9xyNJ4BTgNQJX5UqzDlbrD4IOVuvLtOd4IgkcC7wmjqZOWztQbTMAOlhtI9ee6xlIYCl4pdU/a+ve7aED1XYd38FqO9n2nM9IAq3AlQIqax/ZqjpQbdvhHay2lW/P/UwlkAWvCWgV7FQdqLbv6A5W28u4l3ABEpgNXl39O1rvdrA6mqh7QZckgRbw6qzqOD3bweo4cu6lXLgEIvDqPtXH69gOVseTdS/pGknAwKsD1XE7tIPVceXdS+sS6BKYKYEOVjMF11/rEugSOK4EOlgdV969tC6BLoGZEuhgNVNw/bUugS6B40qgg9Vx5d1L6xLoEpgpgQ5WMwXXX+sS6BI4rgQ6WB1X3r20LoEugZkS6GA1U3D9tS6BLoHjSqCD1XHl3UvrEugSmCmBDlYzBddf6xLoEjiuBP4/ymywDLWK+dQAAAAASUVORK5CYII=;" vertex="1" parent="1">
          <mxGeometry x="70" y="250" width="162.35" height="120" as="geometry" />
        </mxCell>
      </root>
    </mxGraphModel>
  </diagram>
</mxfile>
